# xmcd
#
# Track frame offsets:
#	150
#	14545
#	27937
#	39992
#	52674
#	66596
#	78651
#	90677
#	102773
#	115818
#	131872
#	149137
#	163812
#	175240
#	188590
#	204378
#	217965
#
# Disc length: 3084 seconds
#
# Revision: 7
# Processed by: cddbd v1.5.2PL0 Copyright (c) Steve Scherf et al.
# Submitted via: EZCDAudioConverter 2.4.0.1
#
DISCID=f10c0a11
DTITLE=Teodoro and Sampaio - Mulher de Peão
DYEAR=2002
DGENRE=Sertanejo
TTITLE0=Se a casa cair
TTITLE1=Doidão por você
TTITLE2=Chorar por amor nunca mais
TTITLE3=Cantaram a minha vizinha
TTITLE4=Besta de paixão
TTITLE5=Garanhão da madrugada
TTITLE6=Aqui pra ela
TTITLE7=Mulher de peão
TTITLE8=Será que vai chover?
TTITLE9=Cowboy conquistador
TTITLE10=Coração sem dono
TTITLE11=Vacina de amor
TTITLE12=Agarradinho
TTITLE13=O mala
TTITLE14=Uma semana de fogo
TTITLE15=Bebendo com os amigos
TTITLE16=Desafio de roqueiro
EXTD=
EXTT0=
EXTT1=
EXTT2=
EXTT3=
EXTT4=
EXTT5=
EXTT6=
EXTT7=
EXTT8=
EXTT9=
EXTT10=
EXTT11=
EXTT12=
EXTT13=
EXTT14=
EXTT15=
EXTT16=
PLAYORDER=
